<svg xmlns="http://www.w3.org/2000/svg" width="32" height="32" id="gift"><path style="line-height:normal;text-indent:0;text-align:start;text-decoration-line:none;text-decoration-style:solid;text-decoration-color:#000;text-transform:none;block-progression:tb;isolation:auto;mix-blend-mode:normal" d="M12.5 2.254c-1.64 0-3 1.276-3 2.873 0 .722.288 1.37.744 1.873H4.5C3.678 7 3 7.678 3 8.5v4c0 .647.421 1.198 1 1.406v14.149C4 29.134 4.91 30 6 30h21c1.09 0 2-.866 2-1.945V13.906c.578-.209 1-.76 1-1.406v-4c0-.822-.678-1.5-1.5-1.5h-5.744c.456-.503.744-1.15.744-1.873 0-1.597-1.36-2.873-3-2.873h-.299c-1.496 0-2.484.742-3.047 1.736-.28.496-.482 1.046-.654 1.617-.172-.571-.372-1.121-.652-1.617-.563-.994-1.55-1.736-3.047-1.736H12.5zm0 1h.3c1.204 0 1.732.445 2.177 1.23.355.627.578 1.579.832 2.516H12.5c-1.13 0-2-.84-2-1.873 0-1.032.87-1.873 2-1.873zm7.701 0h.299c1.13 0 2 .841 2 1.873S21.63 7 20.5 7h-3.307c.254-.937.475-1.889.83-2.516.445-.785.975-1.23 2.178-1.23zM4.5 8h8.217C11.679 8.824 11 10.076 11 11.494a.5.5 0 1 0 1 0C12 9.561 13.572 8 15.53 8H16v5H4.5a.488.488 0 0 1-.5-.5v-4c0-.286.214-.5.5-.5zM17 8h.47C19.429 8 21 9.56 21 11.494a.5.5 0 1 0 1 0c0-1.418-.681-2.67-1.719-3.494H28.5c.286 0 .5.214.5.5v4c0 .286-.214.5-.5.5H17V8zM5 14h11v15H6c-.573 0-1-.424-1-.945V14zm12 0h11v14.055c0 .521-.427.945-1 .945H17V14z" color="#000" font-family="sans-serif" font-weight="400" overflow="visible"></path></svg>