<svg width="70" height="70" viewBox="0 0 70 70" fill="none" xmlns="http://www.w3.org/2000/svg">
<path d="M35.4232 60.5609C28.3428 60.5609 27.5081 60.5235 24.745 60.4026C22.5903 60.3318 20.4635 59.8938 18.4561 59.1074C16.7384 58.4389 15.1784 57.4205 13.8752 56.1169C12.5721 54.8132 11.5543 53.2529 10.8864 51.5348C10.1303 49.5202 9.72254 47.3916 9.68047 45.2402C9.51929 42.4828 9.51929 41.5791 9.51929 34.5534C9.51929 27.4528 9.5567 26.6239 9.68047 23.8752C9.72346 21.7266 10.1313 19.601 10.8864 17.5892C11.5535 15.8689 12.572 14.3068 13.8769 13.0024C15.1818 11.698 16.7443 10.6801 18.4648 10.0137C20.4756 9.25442 22.6018 8.84555 24.7508 8.80484C27.4995 8.64941 28.4033 8.64941 35.4232 8.64941C42.5612 8.64941 43.3815 8.68683 46.1014 8.80484C48.2543 8.84513 50.3899 9.25384 52.4047 10.0137C54.1247 10.6809 55.6869 11.6991 56.9916 13.0033C58.2964 14.3076 59.3152 15.8694 59.983 17.5892C60.7515 19.6327 61.1631 21.7913 61.1948 23.9702C61.3559 26.7275 61.3559 27.6284 61.3559 34.6512C61.3559 41.6741 61.3157 42.5951 61.1948 45.3208C61.1518 47.4742 60.743 49.6047 59.9859 51.6212C59.3164 53.3404 58.2967 54.9016 56.9916 56.2058C55.6864 57.5099 54.1244 58.5284 52.4047 59.1966C50.3899 59.9507 48.2629 60.3594 46.1129 60.4026C43.3642 60.5609 42.4633 60.5609 35.4232 60.5609V60.5609ZM35.3254 13.2056C28.2853 13.2056 27.5542 13.2402 24.8055 13.3639C23.1639 13.3854 21.5381 13.6882 19.9989 14.2591C18.8762 14.6894 17.8561 15.3502 17.0044 16.1989C16.1527 17.0476 15.4884 18.0654 15.0541 19.1866C14.4785 20.7408 14.1762 22.3843 14.159 24.0421C14.0064 26.8311 14.0064 27.5622 14.0064 34.5534C14.0064 41.4611 14.0323 42.2986 14.159 45.0704C14.1849 46.7109 14.4871 48.3371 15.0541 49.877C15.9348 52.1421 17.7308 53.9324 20.0017 54.8016C21.539 55.3761 23.1645 55.679 24.8055 55.6967C27.5916 55.8579 28.3255 55.8579 35.3254 55.8579C42.3856 55.8579 43.1167 55.8234 45.8424 55.6967C47.4841 55.6769 49.1101 55.374 50.649 54.8016C51.7657 54.368 52.78 53.7067 53.6273 52.8599C54.4746 52.0131 55.1365 50.9992 55.5707 49.8827C56.1464 48.3285 56.4486 46.6822 56.4659 45.0243H56.4975C56.6213 42.2727 56.6213 41.5388 56.6213 34.5073C56.6213 27.4758 56.5896 26.7361 56.4659 23.9874C56.4398 22.3482 56.1372 20.7251 55.5707 19.1866C55.1375 18.0685 54.4761 17.053 53.6287 16.2046C52.7813 15.3562 51.7665 14.6936 50.649 14.2591C49.1105 13.6854 47.4842 13.3825 45.8424 13.3639C43.0591 13.2056 42.3309 13.2056 35.3254 13.2056V13.2056ZM35.4232 47.8478C32.7913 47.8495 30.218 47.0707 28.0288 45.6098C25.8395 44.1488 24.1327 42.0715 23.1242 39.6405C22.1157 37.2094 21.8508 34.5339 22.363 31.9523C22.8752 29.3707 24.1415 26.999 26.0018 25.1372C27.862 23.2753 30.2326 22.0069 32.8138 21.4925C35.3949 20.9781 38.0707 21.2407 40.5026 22.2471C42.9345 23.2535 45.0133 24.9585 46.4761 27.1464C47.9389 29.3344 48.72 31.907 48.7206 34.539C48.716 38.0653 47.314 41.4461 44.8215 43.9406C42.3291 46.4352 38.9496 47.8402 35.4232 47.8478V47.8478ZM35.4232 25.8986C33.7155 25.8986 32.046 26.405 30.6261 27.3538C29.2061 28.3025 28.0994 29.6511 27.4459 31.2289C26.7923 32.8066 26.6213 34.5428 26.9545 36.2177C27.2877 37.8927 28.11 39.4312 29.3176 40.6388C30.5252 41.8464 32.0637 42.6688 33.7387 43.0019C35.4136 43.3351 37.1498 43.1641 38.7276 42.5106C40.3053 41.857 41.6539 40.7503 42.6027 39.3304C43.5515 37.9104 44.0579 36.241 44.0579 34.5332C44.0526 32.2448 43.1411 30.0516 41.523 28.4335C39.9048 26.8153 37.7116 25.9039 35.4232 25.8986ZM49.2387 23.8464C48.8312 23.8449 48.428 23.7631 48.0522 23.6058C47.6763 23.4485 47.3351 23.2187 47.0481 22.9295C46.4684 22.3455 46.1444 21.5551 46.1475 20.7322C46.1505 19.9093 46.4803 19.1213 47.0644 18.5416C47.6484 17.9619 48.4388 17.6379 49.2617 17.641C50.0846 17.644 50.8726 17.9738 51.4523 18.5579C52.032 19.1419 52.3559 19.9323 52.3529 20.7552C52.3498 21.5781 52.02 22.3661 51.436 22.9458C50.852 23.5255 50.0616 23.8494 49.2387 23.8464Z" fill="#A89156"/>
</svg>
