<svg width="70" height="70" viewBox="0 0 70 70" fill="none" xmlns="http://www.w3.org/2000/svg">
<path d="M35.1322 5.75684C28.3743 5.75596 21.8366 8.18167 16.6894 12.5998C11.5422 17.0179 8.12151 23.14 7.03952 29.8703C5.95753 36.6006 7.28491 43.4998 10.7841 49.3328C14.2833 55.1659 19.7258 59.5522 26.1375 61.7065C27.5639 61.9655 28.0745 61.0819 28.0745 60.3221C28.0745 59.6399 28.0517 57.8324 28.0431 55.4291C20.1268 57.156 18.4551 51.578 18.4551 51.578C17.9339 49.8423 16.8135 48.3525 15.2971 47.3787C12.7296 45.5971 15.4939 45.6374 15.4939 45.6374C17.3197 45.8907 18.9315 46.9815 19.8501 48.5962C20.2355 49.3034 20.756 49.9265 21.3814 50.4297C22.0068 50.9329 22.7248 51.3062 23.4939 51.528C24.263 51.7498 25.068 51.8158 25.8625 51.7221C26.6571 51.6285 27.4253 51.377 28.123 50.9822C28.2542 49.5259 28.899 48.1645 29.9345 47.1427C23.6185 46.4203 16.9773 43.9565 16.9773 32.9531C16.9423 30.1071 17.9898 27.3558 19.9043 25.2654C19.038 22.7881 19.14 20.0709 20.1895 17.6669C20.1895 17.6669 22.5773 16.8927 28.0118 20.6056C32.6727 19.3161 37.5917 19.3161 42.2527 20.6056C47.69 16.8898 50.0749 17.6669 50.0749 17.6669C51.1304 20.0702 51.2303 22.7901 50.3602 25.2654C52.2817 27.3556 53.3283 30.1141 53.2814 32.9646C53.2814 43.9968 46.6345 46.4203 40.2957 47.1312C41.665 48.5415 42.3639 50.4757 42.2213 52.4444C42.2213 56.2839 42.1871 59.3809 42.1871 60.3221C42.1871 61.0905 42.6948 61.9828 44.1469 61.7007C50.556 59.5427 55.995 55.1543 59.4906 49.3205C62.9862 43.4868 64.3103 36.5885 63.2261 29.8599C62.1419 23.1313 58.72 17.0115 53.5728 12.5954C48.4255 8.17939 41.8888 5.75528 35.1322 5.75684V5.75684Z" fill="#A89156"/>
</svg>
